<?xml version="1.0" standalone="no"?>
<!DOCTYPE svg PUBLIC "-//W3C//DTD SVG 20010904//EN"
 "http://www.w3.org/TR/2001/REC-SVG-20010904/DTD/svg10.dtd">
<svg version="1.0" xmlns="http://www.w3.org/2000/svg"
 width="250.000000pt" height="250.000000pt" viewBox="0 0 250.000000 250.000000"
 preserveAspectRatio="xMidYMid meet">
<metadata>
Created by potrace 1.11, written by Peter Selinger 2001-2013
</metadata>
<g transform="translate(0.000000,250.000000) scale(0.100000,-0.100000)"
fill="#000000" stroke="none">
<path d="M952 1924 c-1 -11 -2 -28 -3 -39 0 -10 -5 -26 -12 -34 -9 -12 -9 -13
1 -7 6 4 12 3 12 -3 0 -5 -4 -12 -10 -16 -5 -3 -6 -13 -3 -22 5 -12 3 -14 -8
-8 -12 8 -12 6 0 -8 12 -15 11 -17 -5 -17 -12 0 -15 -3 -8 -8 6 -4 11 -16 11
-27 0 -11 -5 -23 -11 -27 -8 -6 -7 -11 2 -17 16 -10 14 -22 -7 -39 -9 -8 -10
-11 -3 -7 7 4 12 0 12 -9 0 -9 -6 -16 -12 -16 -9 0 -8 -4 2 -10 8 -5 10 -10 4
-10 -20 0 -9 -45 16 -62 14 -10 22 -18 18 -18 -5 0 0 -8 10 -18 9 -11 21 -17
26 -14 5 3 6 0 3 -5 -6 -9 2 -21 43 -70 6 -7 8 -13 4 -13 -4 0 3 -9 16 -20 13
-11 20 -20 16 -20 -8 0 24 -62 37 -71 5 -3 8 -8 6 -10 -5 -9 13 -49 22 -49 6
0 8 -4 4 -9 -3 -5 -1 -12 5 -16 6 -4 8 -11 4 -16 -3 -6 1 -16 10 -22 9 -7 17
-25 18 -41 2 -15 8 -30 14 -33 7 -2 9 -14 6 -25 -3 -12 1 -24 10 -29 9 -5 14
-21 13 -39 -1 -16 2 -30 6 -30 4 0 6 -9 4 -20 -3 -13 0 -18 7 -14 7 5 9 1 5
-9 -4 -10 -2 -17 4 -17 6 0 9 -9 6 -19 -3 -13 1 -21 12 -24 14 -3 17 2 16 29
-1 19 3 34 9 34 8 0 7 3 -1 8 -8 5 -6 17 7 44 13 27 15 40 6 49 -8 9 -8 10 2
5 8 -5 12 1 12 18 0 14 4 26 8 26 4 0 8 10 9 22 1 11 6 24 12 27 5 4 8 19 7
33 -2 15 0 25 4 23 8 -5 30 39 30 61 0 9 5 12 11 8 8 -5 10 1 7 20 -5 23 -3
24 10 14 13 -10 14 -10 8 0 -4 7 2 25 14 42 12 17 18 30 13 30 -4 0 0 5 10 11
9 6 15 14 12 20 -4 5 -1 9 5 9 6 0 9 3 7 8 -7 10 19 32 27 24 4 -3 4 2 0 12
-5 13 -4 17 4 12 6 -3 13 2 17 13 3 11 21 33 39 48 18 16 30 35 28 41 -2 7 2
12 8 12 10 0 10 4 0 15 -9 11 -9 15 -1 15 7 0 9 5 5 12 -5 7 -9 29 -11 48 -2
19 -6 42 -9 50 -4 8 -8 35 -9 60 -8 125 -11 148 -17 143 -5 -2 -8 2 -8 9 0 7
-11 1 -24 -14 -12 -15 -26 -25 -30 -21 -3 3 -6 -1 -6 -10 0 -9 -5 -17 -11 -17
-5 0 -7 -5 -3 -12 4 -6 3 -8 -3 -5 -12 8 -46 -27 -36 -36 3 -4 2 -7 -4 -7 -6
0 -22 -18 -37 -40 -14 -22 -24 -40 -21 -40 3 0 -2 -8 -10 -17 -8 -10 -15 -22
-14 -26 0 -4 -7 -19 -15 -32 -9 -13 -17 -33 -19 -44 -2 -10 -8 -25 -14 -33 -6
-7 -9 -21 -8 -30 2 -10 -2 -18 -8 -18 -8 0 -7 -3 1 -9 11 -7 10 -9 -3 -15 -11
-4 -14 -12 -10 -27 5 -16 4 -19 -5 -14 -9 5 -11 4 -6 -3 4 -7 2 -20 -3 -29 -6
-11 -11 -13 -11 -5 0 7 -4 11 -8 8 -7 -4 -12 17 -15 62 0 6 -3 12 -7 12 -4 0
-6 11 -5 25 2 18 -2 25 -13 25 -15 0 -15 2 -2 10 8 5 10 10 5 10 -6 0 -12 12
-13 27 -1 15 -6 29 -11 32 -4 3 -11 18 -15 34 -3 15 -11 27 -16 27 -5 0 -7 7
-4 15 4 8 1 15 -5 15 -6 0 -11 6 -11 13 0 8 -9 22 -20 32 -11 10 -20 22 -20
27 0 5 -11 20 -25 34 -14 14 -25 29 -25 35 0 6 -4 7 -10 4 -5 -3 -10 1 -10 9
0 8 -10 21 -22 27 -13 7 -28 19 -34 27 -9 12 -11 12 -12 -4z"/>
<path d="M417 1849 c-3 -13 1 -26 13 -36 10 -9 16 -22 13 -29 -3 -8 0 -14 7
-14 7 0 10 -7 6 -16 -3 -8 -2 -12 4 -9 10 6 14 -8 10 -35 -1 -8 2 -12 6 -7 7
7 34 -53 36 -80 1 -7 5 -13 10 -13 4 0 8 -7 8 -16 0 -8 4 -13 8 -10 4 2 9 -7
10 -22 1 -15 7 -28 12 -30 6 -2 10 -10 10 -17 0 -7 9 -30 19 -52 10 -21 30
-62 43 -90 14 -29 29 -49 33 -45 5 4 5 1 1 -6 -4 -7 -2 -20 6 -29 7 -9 12 -18
10 -20 -1 -2 4 -19 12 -38 9 -20 14 -36 13 -38 -1 -1 8 -16 20 -33 12 -17 19
-34 15 -38 -3 -4 0 -11 8 -16 15 -9 16 -13 19 -51 0 -12 5 -17 12 -13 8 4 9
-1 4 -17 -4 -13 -4 -21 0 -17 5 5 15 -1 22 -12 8 -11 19 -18 24 -15 5 3 6 -1
3 -9 -3 -9 2 -17 15 -21 12 -3 21 -9 21 -13 0 -4 26 -34 56 -67 31 -33 53 -54
49 -46 -5 9 -4 12 3 7 7 -4 12 -11 12 -17 0 -13 38 -49 53 -49 8 0 7 -4 -3
-10 -13 -8 -12 -10 3 -10 9 0 17 -4 17 -8 0 -4 24 -8 53 -7 l52 0 0 -43 c0
-23 4 -42 9 -42 5 0 2 -8 -5 -17 -8 -9 -9 -14 -3 -11 5 4 23 -9 39 -28 21 -25
37 -34 58 -34 17 0 28 3 24 6 -3 4 21 33 53 65 33 32 60 65 60 71 0 9 3 8 10
-2 8 -12 10 -12 10 -1 0 8 18 31 40 51 22 20 37 39 34 42 -3 4 3 9 13 12 11 3
29 20 42 36 12 17 26 28 31 25 6 -4 7 1 3 11 -4 11 -3 15 5 10 6 -3 13 3 17
14 4 11 9 19 13 17 4 -2 15 4 25 15 9 10 14 18 10 18 -4 0 4 8 17 17 14 10 29
17 33 15 5 -1 5 2 2 9 -4 6 5 23 19 38 15 16 26 32 25 37 -4 14 11 54 21 54 4
0 6 9 3 20 -4 14 0 20 10 20 10 0 15 7 12 20 -2 11 0 20 6 20 5 0 9 9 9 21 0
11 4 18 9 15 5 -4 8 2 7 11 -2 10 3 24 11 31 7 7 13 22 13 33 0 10 5 19 12 19
6 0 8 3 5 7 -4 3 2 20 12 37 10 17 17 39 16 49 -2 9 1 15 6 11 8 -5 13 9 10
29 0 4 4 7 11 7 6 0 8 3 5 7 -4 3 1 12 11 20 9 8 11 11 4 8 -11 -6 -11 -3 0
16 7 13 17 27 23 31 5 4 6 10 2 14 -4 4 1 13 11 21 9 8 12 12 5 8 -7 -3 -5 10
7 32 10 21 27 57 36 81 10 23 21 42 26 42 4 0 5 7 2 15 -4 8 1 17 10 21 9 3
13 10 10 16 -3 5 1 17 10 26 8 10 12 22 8 27 -9 13 -35 18 -27 5 3 -5 -1 -10
-9 -10 -9 0 -16 -6 -16 -12 0 -9 -3 -8 -10 2 -8 12 -10 12 -16 -3 -3 -9 -11
-17 -16 -17 -5 0 -23 -9 -39 -21 -16 -11 -29 -18 -29 -14 0 6 -15 -5 -49 -36
-9 -8 -23 -13 -31 -11 -7 3 -10 0 -6 -7 4 -6 3 -11 -3 -11 -5 0 -23 -11 -39
-25 -16 -13 -33 -21 -37 -17 -5 4 -5 2 -1 -5 4 -7 -3 -17 -16 -24 -28 -15 -78
-65 -78 -79 0 -5 -6 -10 -14 -10 -8 0 -23 -13 -33 -30 -9 -16 -21 -30 -26 -30
-4 0 -5 -4 -2 -10 3 -5 -1 -10 -9 -10 -9 0 -16 -6 -16 -14 0 -8 -4 -16 -8 -18
-4 -1 -19 -18 -32 -37 -14 -20 -18 -31 -9 -27 7 4 4 -1 -8 -10 -13 -9 -23 -23
-23 -30 0 -8 -4 -14 -10 -14 -5 0 -10 -9 -10 -20 0 -11 -5 -20 -11 -20 -5 0
-7 -4 -4 -10 3 -5 1 -10 -4 -10 -6 0 -11 -7 -11 -16 0 -9 -5 -12 -12 -8 -10 6
-10 4 0 -8 10 -13 10 -17 -3 -22 -9 -3 -13 -10 -10 -16 3 -6 0 -13 -8 -16 -8
-3 -14 -13 -12 -22 1 -9 -4 -30 -13 -47 -8 -16 -19 -38 -24 -49 -7 -13 -6 -16
2 -11 7 4 4 -4 -5 -19 -10 -15 -15 -29 -11 -33 3 -3 1 -12 -5 -20 -6 -7 -9
-13 -6 -13 3 0 -1 -12 -8 -27 -10 -18 -11 -29 -4 -32 6 -2 3 -12 -8 -24 -10
-11 -12 -17 -5 -13 6 4 12 2 12 -4 0 -6 -7 -13 -15 -16 -8 -4 -15 -10 -15 -16
0 -5 6 -6 13 -2 9 5 9 4 0 -6 -6 -7 -9 -19 -6 -26 3 -8 -1 -14 -8 -14 -11 0
-11 -3 1 -10 8 -5 10 -10 3 -10 -6 0 -9 -9 -6 -20 3 -13 0 -20 -8 -20 -11 0
-11 -2 1 -10 12 -8 12 -10 1 -10 -10 0 -11 -3 -2 -14 7 -9 8 -17 2 -20 -5 -3
-8 -17 -6 -31 1 -14 -1 -28 -6 -30 -4 -3 -6 -15 -4 -28 4 -20 3 -20 -9 -5 -7
10 -15 16 -17 13 -3 -2 -6 6 -6 18 -2 17 0 19 7 7 5 -8 10 -10 10 -5 0 6 -5
16 -12 23 -9 9 -9 12 0 12 7 0 12 5 12 11 0 5 -5 7 -12 3 -8 -5 -9 -2 -5 9 3
10 3 17 -1 17 -4 0 -7 16 -7 35 1 20 -3 39 -8 42 -5 3 -3 9 4 14 10 6 10 9 2
9 -7 0 -10 7 -7 15 4 8 -2 27 -11 41 -9 15 -11 23 -4 19 8 -6 10 -4 3 6 -5 8
-10 25 -12 39 -2 13 -9 31 -15 39 -10 12 -9 13 3 6 9 -5 8 0 -4 13 -13 15 -15
22 -6 22 9 0 7 7 -5 26 -12 18 -13 24 -4 19 8 -4 8 -1 -1 7 -9 7 -14 21 -12
31 2 9 -2 17 -8 17 -6 0 -9 4 -5 9 3 5 1 12 -5 16 -6 4 -8 10 -5 15 3 5 1 11
-5 15 -6 4 -8 11 -5 16 4 5 1 9 -5 9 -7 0 -10 7 -6 15 3 8 1 15 -5 15 -6 0 -8
7 -5 16 3 9 2 12 -4 9 -6 -4 -13 8 -17 25 -3 18 -12 34 -19 37 -7 2 -11 13 -9
24 2 10 -1 18 -8 16 -6 -1 -13 8 -15 21 -2 12 -10 22 -18 22 -8 0 -14 9 -14
20 0 11 -4 20 -10 20 -5 0 -10 6 -10 14 0 8 -7 17 -16 20 -8 3 -12 10 -9 16 3
5 -2 10 -11 10 -10 0 -14 3 -11 6 4 4 -3 15 -15 25 -11 11 -19 19 -16 19 7 0
-77 84 -122 123 -18 15 -36 27 -42 27 -5 0 -6 5 -3 10 3 6 0 10 -7 10 -8 0
-20 9 -28 19 -7 11 -17 18 -21 16 -4 -3 -12 2 -19 10 -7 8 -19 15 -27 15 -8 0
-11 5 -7 11 4 7 1 10 -6 7 -7 -2 -24 6 -38 19 -14 13 -32 23 -41 23 -9 0 -23
9 -30 19 -8 11 -19 17 -26 15 -6 -3 -18 2 -25 11 -17 20 -27 19 -33 -6z"/>
<path d="M61 1536 c-9 -11 -9 -16 0 -22 8 -5 9 -3 4 6 -5 8 -4 11 3 6 6 -4 9
-13 5 -21 -4 -11 3 -15 25 -15 17 0 32 -6 36 -15 3 -8 12 -15 21 -15 8 0 15
-5 15 -11 0 -5 5 -7 10 -4 5 3 10 1 10 -4 0 -6 7 -11 16 -11 8 0 13 -4 10 -8
-2 -4 5 -9 16 -9 11 -1 26 -10 34 -20 7 -10 14 -14 14 -10 0 5 7 1 16 -7 8 -9
20 -13 26 -10 6 4 8 2 5 -3 -7 -10 20 -28 36 -25 4 1 7 -4 7 -11 0 -6 11 -18
25 -24 14 -7 36 -19 50 -25 14 -7 25 -19 25 -26 0 -7 4 -10 10 -7 5 3 10 1 10
-6 0 -7 3 -10 6 -6 3 3 17 -5 30 -18 13 -13 33 -26 44 -30 11 -4 18 -9 16 -13
-2 -4 8 -16 23 -27 26 -19 26 -19 12 0 -8 11 1 4 21 -15 20 -19 34 -38 31 -43
-2 -4 -1 -7 4 -6 4 1 10 0 13 -1 3 -1 13 -3 23 -5 17 -3 17 -2 4 13 -9 9 -19
29 -22 45 -4 15 -12 27 -17 27 -6 0 -8 9 -5 20 3 11 0 23 -5 27 -7 4 -8 1 -3
-7 6 -9 4 -11 -4 -6 -7 5 -10 14 -7 22 3 7 -3 18 -12 23 -14 8 -14 10 -2 11
13 0 13 1 0 10 -8 5 -15 13 -15 17 -2 21 -17 53 -26 53 -6 0 -8 3 -5 8 2 4 -4
25 -14 47 -10 22 -16 44 -13 49 4 5 1 6 -5 2 -7 -4 -12 -1 -12 9 0 24 -25 45
-54 45 -14 0 -26 6 -26 13 0 9 -2 9 -9 -1 -7 -11 -9 -11 -14 1 -3 9 -15 12
-37 9 -22 -3 -31 -1 -26 6 3 6 1 14 -5 18 -7 4 -9 3 -6 -3 4 -6 -6 -13 -24
-15 -16 -3 -33 0 -36 5 -4 6 -1 7 7 2 9 -5 11 -4 6 3 -4 8 -15 8 -31 2 -18 -7
-28 -5 -40 6 -8 9 -15 11 -15 5 0 -5 -9 -9 -20 -8 -11 1 -20 6 -20 12 0 6 -3
7 -8 0 -10 -14 -56 -15 -64 -1 -6 8 -8 7 -8 -2 0 -13 -31 -13 -41 1 -3 4 -11
1 -18 -7z"/>
<path d="M2230 1537 c0 -15 -3 -16 -22 -6 -18 10 -20 9 -14 -7 6 -16 5 -16
-15 2 -12 10 -19 13 -15 7 4 -7 4 -13 -1 -14 -4 -1 -28 -3 -52 -5 -24 -1 -48
-9 -52 -16 -7 -11 -9 -10 -9 1 0 10 -3 11 -13 2 -8 -6 -17 -8 -20 -4 -4 3 -7
1 -7 -5 0 -7 -5 -12 -11 -12 -5 0 -7 5 -3 12 4 7 3 8 -4 4 -7 -4 -12 -13 -12
-19 0 -7 -9 -21 -21 -30 -11 -10 -19 -23 -17 -29 3 -7 -4 -20 -15 -31 -10 -10
-16 -25 -13 -32 3 -8 1 -17 -5 -21 -9 -5 -25 -38 -28 -57 0 -4 -14 -34 -31
-67 -16 -33 -30 -67 -30 -75 0 -10 -5 -13 -12 -9 -7 4 -10 4 -6 -1 4 -4 3 -14
-3 -21 -6 -7 -8 -18 -4 -25 5 -7 15 -3 30 15 12 14 25 23 28 20 3 -3 11 4 17
16 6 12 14 20 16 17 3 -3 17 6 31 19 14 13 30 21 36 17 5 -3 8 -2 5 3 -3 5 0
15 8 22 8 7 14 10 14 7 0 -4 7 1 16 9 8 9 21 13 27 9 7 -3 9 -3 5 2 -5 5 9 20
30 34 20 13 43 31 50 38 7 7 20 13 28 13 8 0 14 5 14 11 0 5 5 7 10 4 6 -3 10
-2 10 3 0 10 95 72 111 72 5 0 9 4 9 9 0 5 14 14 30 21 17 7 30 17 30 22 0 6
7 7 16 4 10 -4 13 -2 8 6 -5 8 -2 9 10 5 10 -4 15 -3 11 3 -3 6 4 10 15 10 15
0 20 5 17 14 -4 9 0 12 12 9 11 -3 18 1 18 10 0 9 -8 14 -19 12 -10 -2 -18 1
-18 7 0 7 -6 6 -15 -2 -11 -9 -19 -10 -28 -1 -10 8 -17 7 -25 -1 -8 -8 -15 -8
-25 0 -10 9 -19 7 -37 -5 -15 -11 -20 -12 -15 -3 6 10 4 12 -10 6 -11 -4 -22
-2 -27 6 -6 10 -8 8 -8 -5z"/>
</g>
</svg>
